<svg width="22" height="22" viewBox="0 0 22 22" fill="none" xmlns="http://www.w3.org/2000/svg">
<path d="M12.163 3.36301C12.4381 3.08806 12.811 2.93359 13.1999 2.93359C13.5889 2.93359 13.9618 3.08806 14.2369 3.36301L20.8369 9.96301C21.1118 10.2381 21.2663 10.611 21.2663 10.9999C21.2663 11.3889 21.1118 11.7618 20.8369 12.0369L14.2369 18.6369C13.9603 18.904 13.5898 19.0519 13.2052 19.0485C12.8207 19.0452 12.4528 18.8909 12.1809 18.619C11.9089 18.3471 11.7547 17.9792 11.7514 17.5947C11.748 17.2101 11.8958 16.8396 12.163 16.563L16.1333 12.4666H2.19994C1.81096 12.4666 1.43791 12.3121 1.16285 12.037C0.8878 11.762 0.733276 11.3889 0.733276 10.9999C0.733276 10.611 0.8878 10.2379 1.16285 9.96286C1.43791 9.6878 1.81096 9.53328 2.19994 9.53328H16.1333L12.163 5.43688C11.8881 5.16184 11.7336 4.78885 11.7336 4.39995C11.7336 4.01104 11.8881 3.63805 12.163 3.36301Z" fill="white"/>
</svg>
