<svg width="24" height="22" viewBox="0 0 24 22" fill="none" xmlns="http://www.w3.org/2000/svg">
<g clip-path="url(#clip0_2_39)">
<path d="M12 0C8.7435 0 8.334 0.01375 7.0545 0.066C5.775 0.121 4.9035 0.30525 4.14 0.5775C3.33914 0.853626 2.61374 1.28676 2.0145 1.84663C1.40411 2.39621 0.931661 3.06108 0.63 3.795C0.333 4.4935 0.1305 5.29375 0.072 6.4625C0.015 7.63812 0 8.01213 0 11.0014C0 13.9879 0.015 14.3619 0.072 15.5348C0.132 16.7063 0.333 17.5051 0.63 18.205C0.9375 18.9282 1.347 19.5415 2.0145 20.1534C2.6805 20.7652 3.3495 21.142 4.1385 21.4225C4.9035 21.6947 5.7735 21.8804 7.0515 21.934C8.3325 21.9862 8.7405 22 12 22C15.2595 22 15.666 21.9862 16.947 21.934C18.2235 21.879 19.098 21.6947 19.8615 21.4225C20.6618 21.1462 21.3867 20.7131 21.9855 20.1534C22.653 19.5415 23.0625 18.9282 23.37 18.205C23.6655 17.5051 23.868 16.7063 23.928 15.5348C23.985 14.3619 24 13.9879 24 11C24 8.01212 23.985 7.63813 23.928 6.46388C23.868 5.29375 23.6655 4.4935 23.37 3.795C23.0684 3.06106 22.5959 2.39618 21.9855 1.84663C21.3864 1.28655 20.661 0.853387 19.86 0.5775C19.095 0.30525 18.222 0.119625 16.9455 0.066C15.6645 0.01375 15.258 0 11.997 0H12.0015H12ZM10.9245 1.98275H12.0015C15.2055 1.98275 15.585 1.99238 16.8495 2.046C18.0195 2.09413 18.6555 2.27425 19.0785 2.42413C19.638 2.6235 20.0385 2.86275 20.4585 3.24775C20.8785 3.63275 21.138 3.9985 21.3555 4.51275C21.5205 4.89913 21.7155 5.48213 21.768 6.55463C21.8265 7.71375 21.8385 8.06163 21.8385 10.9973C21.8385 13.9329 21.8265 14.2821 21.768 15.4412C21.7155 16.5137 21.519 17.0954 21.3555 17.4831C21.1631 17.9607 20.856 18.3926 20.457 18.7467C20.037 19.1317 19.638 19.3696 19.077 19.569C18.657 19.7203 18.021 19.899 16.8495 19.9485C15.585 20.0008 15.2055 20.0131 12.0015 20.0131C8.7975 20.0131 8.4165 20.0008 7.152 19.9485C5.982 19.899 5.3475 19.7203 4.9245 19.569C4.40325 19.3929 3.93169 19.1119 3.5445 18.7467C3.14513 18.392 2.83758 17.9598 2.6445 17.4817C2.481 17.0954 2.2845 16.5124 2.232 15.4399C2.175 14.2808 2.163 13.9329 2.163 10.9945C2.163 8.0575 2.175 7.711 2.232 6.55187C2.286 5.47937 2.481 4.89638 2.646 4.50863C2.8635 3.99575 3.1245 3.62862 3.5445 3.24362C3.9645 2.85862 4.3635 2.62075 4.9245 2.42138C5.3475 2.27013 5.982 2.09138 7.152 2.04188C8.259 1.99513 8.688 1.98138 10.9245 1.98V1.98275ZM18.4065 3.80875C18.2174 3.80875 18.0301 3.84289 17.8554 3.90923C17.6807 3.97557 17.522 4.0728 17.3883 4.19537C17.2545 4.31794 17.1485 4.46346 17.0761 4.62361C17.0037 4.78376 16.9665 4.95541 16.9665 5.12875C16.9665 5.30209 17.0037 5.47374 17.0761 5.63389C17.1485 5.79404 17.2545 5.93956 17.3883 6.06213C17.522 6.1847 17.6807 6.28193 17.8554 6.34827C18.0301 6.41461 18.2174 6.44875 18.4065 6.44875C18.7884 6.44875 19.1547 6.30968 19.4247 6.06213C19.6948 5.81458 19.8465 5.47884 19.8465 5.12875C19.8465 4.77866 19.6948 4.44292 19.4247 4.19537C19.1547 3.94782 18.7884 3.80875 18.4065 3.80875ZM12.0015 5.3515C11.1841 5.33981 10.3723 5.47729 9.61347 5.75594C8.85459 6.0346 8.16377 6.44885 7.58123 6.97458C6.99868 7.50032 6.53605 8.12703 6.22026 8.81823C5.90448 9.50944 5.74185 10.2513 5.74185 11.0007C5.74185 11.7501 5.90448 12.4919 6.22026 13.1831C6.53605 13.8743 6.99868 14.5011 7.58123 15.0268C8.16377 15.5525 8.85459 15.9668 9.61347 16.2454C10.3723 16.5241 11.1841 16.6616 12.0015 16.6499C13.6193 16.6267 15.1623 16.0214 16.2975 14.9645C17.4326 13.9076 18.0689 12.4839 18.0689 11.0007C18.0689 9.51751 17.4326 8.09382 16.2975 7.03691C15.1623 5.97999 13.6193 5.37464 12.0015 5.3515ZM12.0015 7.33288C13.0625 7.33288 14.08 7.71923 14.8303 8.40695C15.5805 9.09467 16.002 10.0274 16.002 11C16.002 11.9726 15.5805 12.9053 14.8303 13.593C14.08 14.2808 13.0625 14.6671 12.0015 14.6671C10.9405 14.6671 9.92296 14.2808 9.17272 13.593C8.42248 12.9053 8.001 11.9726 8.001 11C8.001 10.0274 8.42248 9.09467 9.17272 8.40695C9.92296 7.71923 10.9405 7.33288 12.0015 7.33288Z" fill="white"/>
</g>
<defs>
<clipPath id="clip0_2_39">
<rect width="24" height="22" fill="white"/>
</clipPath>
</defs>
</svg>
